<?xml version="1.0" encoding="utf-8"?>
<!-- Svg Vector Icons : http://www.onlinewebfonts.com/icon -->
<!DOCTYPE svg PUBLIC "-//W3C//DTD SVG 1.1//EN" "http://www.w3.org/Graphics/SVG/1.1/DTD/svg11.dtd">
<svg version="1.1" xmlns="http://www.w3.org/2000/svg" xmlns:xlink="http://www.w3.org/1999/xlink" x="0px" y="0px" viewBox="0 0 1000 1000" enable-background="new 0 0 1000 1000" xml:space="preserve">
<metadata> Svg Vector Icons : http://www.onlinewebfonts.com/icon </metadata>
<g><g transform="translate(0.000000,511.000000) scale(0.100000,-0.100000)"><path d="M3959.1,3980.2L2929.3,2950.3l327.8-325.6l325.6-327.8l708.7,708.7l708.7,708.7l708.7-708.7l708.7-708.7l325.6,327.8l327.8,325.6L6040.9,3980.2C5474,4547.1,5006.6,5010,5000,5010S4526.1,4547.1,3959.1,3980.2z"/><path d="M4701,999.2c-380.9-132.9-631.2-480.6-631.2-883.7c0-372.1,203.8-684.3,551.5-850.4c135.1-64.2,163.9-68.7,380.9-68.7c223.7,0,239.2,2.2,398.6,82c206,101.9,349.9,248,447.4,456.2c66.4,137.3,70.9,166.1,70.9,380.9s-4.4,243.6-68.6,378.7c-119.6,252.5-305.6,420.8-558.1,505C5112.9,1061.2,4880.4,1059,4701,999.2z"/><path d="M3250.4-2398.1l-321.1-321.1l1036.5-1036.5L5000-4790l1034.3,1034.3l1036.5,1036.5L6743-2393.7l-325.6,327.8l-708.7-708.7L5000-3483.3l-704.3,704.3c-385.4,385.4-706.5,702.1-713.1,702.1C3576-2077,3427.6-2221,3250.4-2398.1z"/></g></g>
</svg>